<?xml version="1.0" encoding="utf-8"?>
<!-- Generator: Adobe Illustrator 19.0.0, SVG Export Plug-In . SVG Version: 6.00 Build 0)  -->
<svg version="1.1" id="Layer_1" xmlns="http://www.w3.org/2000/svg" xmlns:xlink="http://www.w3.org/1999/xlink" x="0px" y="0px"
	 viewBox="0 0 100 31" style="enable-background:new 0 0 100 31;" xml:space="preserve">
<style type="text/css">
	.st0{fill:#EF4137;}
</style>
<g>
	<g>
		<path class="st0" d="M7.4,24.8c-0.1,0-0.3-0.1-0.5-0.2L1.1,19c-0.3-0.3-0.5-0.5-0.6-0.6c-0.1-0.1-0.3-0.3-0.4-0.5
			C0.1,17.6,0,17.4,0,17.2v-0.8c0-0.3,0.1-0.5,0.2-0.7c0.2-0.2,0.3-0.4,0.4-0.5c0.1-0.1,0.3-0.3,0.6-0.6l5.8-5.8
			C7,8.7,7.2,8.7,7.4,8.7s0.3,0.1,0.5,0.2C7.9,9,8,9.2,8,9.4v0.9c0,0.1,0,0.2,0,0.3c0,0.1,0,0.2,0,0.2c0,0.1,0,0.2-0.1,0.2
			c-0.1,0.1-0.1,0.2-0.1,0.2c0,0.1,0,0.1-0.1,0.2c-0.1,0.1-0.1,0.2-0.1,0.2s-0.1,0.1-0.2,0.2c-0.1,0.1-0.2,0.2-0.2,0.2l-4.5,4.6
			c-0.1,0.1-0.2,0.2-0.2,0.3s0.1,0.2,0.2,0.3l4.5,4.4c0.1,0.1,0.1,0.1,0.2,0.2c0.1,0.1,0.2,0.2,0.2,0.2C7.6,21.9,7.6,22,7.7,22
			c0.1,0.1,0.1,0.1,0.2,0.2c0.1,0.1,0.1,0.1,0.1,0.2C8,22.4,8,22.5,8,22.5c0,0.1,0,0.2,0,0.2c0,0.1,0,0.2,0,0.3v1
			c0,0.2,0,0.4-0.2,0.5C7.7,24.7,7.6,24.8,7.4,24.8z"/>
		<path class="st0" d="M13,31c-0.1,0,0-0.6,0-0.8v-0.1c0-0.1,0-0.1,0-0.1l4.6-29.4C17.7,0.2,17.7,0,17.9,0h2.8C20.8,0,21,0.2,21,0.4
			c0,0.1,0,0.2,0,0.2l-4.8,29.6c-0.1,0.4-0.3,0.8-0.4,0.8H13z"/>
		<path class="st0" d="M25.3,27c-0.2,0-0.2,0-0.3-0.1c-0.1-0.1,0-0.2,0-0.5V4.2c0-0.3-0.1-0.8,0-0.8C25.1,3.3,25.1,3,25.3,3h2.9
			c0.2,0,0.5,0.3,0.6,0.4C28.8,3.5,29,3.9,29,4.2V13c0,0.1-0.2,0-0.1,0.1c0.1,0.1-0.1-0.1,0-0.1h6c0.1,0,0,0.1,0.1,0.1
			c0.1-0.1,0,0,0-0.1V4.2c0-0.3,0.1-0.7,0.2-0.8C35.3,3.3,35.5,3,35.7,3h3c0.2,0,0.3,0.3,0.3,0.4C39,3.5,39,3.9,39,4.2v22.2
			c0,0.3,0,0.5-0.1,0.5C38.8,27,38.8,27,38.6,27h-3c-0.1,0-0.2,0.1-0.3,0c-0.1-0.1-0.2-0.1-0.3-0.2c-0.1-0.1-0.2-0.3-0.2-0.5V16.3
			c0-0.3,0.1-0.3-0.1-0.3h-6c-0.2,0,0.1,0.1,0.1,0.3v10.1c0,0.3-0.2,0.4-0.3,0.5S28.3,27,28.1,27H25.3z"/>
		<path class="st0" d="M46,27.2c0,0-0.1-0.1-0.1-0.2c-0.1-0.1,0.1-0.3,0.1-0.6V6.5C46,6.3,45.9,6,45.8,6h-3.5c-0.2,0-0.2,0-0.3,0
			c-0.1,0,0,0,0-0.1C41.9,5.8,42,5.7,42,5.5V4.2c0-0.3-0.1-0.7,0-0.8C42.1,3.3,42.1,3,42.3,3h11.3c0.2,0,0.3,0.3,0.3,0.4
			C54,3.5,54,3.9,54,4.2v1.3c0,0.3,0,0.4-0.1,0.5s-0.2,0-0.4,0h-3.4C49.9,6,50,6.3,50,6.5v19.9c0,0.3-0.1,0.5-0.2,0.6
			c-0.1,0.1-0.3,0-0.5,0H46V27.2z"/>
		<path class="st0" d="M56.7,27.1c-0.3,0-0.7-0.2-0.7-0.7v-0.1l1.1-22.1c0-0.6,0.4-1.1,0.7-1.1H61c0.2,0,0.4,0.3,0.5,0.4
			c0.2,0.1,0.3,0.4,0.3,0.7l3.4,15.7c0,0.1,0.1,0.2,0.1,0.2c0.1,0,0.1,0,0.1,0c0.1,0,0.1-0.1,0.1-0.2l3.4-15.8
			C68.9,3.6,69.1,3,69.6,3h3.2c0.3,0,0.4,0.6,0.4,1.1L74,26.3v0.1c0,0.5,0,0.6-0.4,0.6h-2.2c-0.3,0-0.5-0.2-0.5-0.8l-0.6-17
			c0-0.1,0-0.1-0.1-0.1c-0.1,0-0.1,0-0.1,0.1l-3.6,17c-0.1,0.5-0.4,0.7-0.7,0.7h-1.3c-0.3,0-0.6-0.1-0.7-0.7l-3.7-17
			c0-0.1-0.3,0-0.3,0c0,0,0,0.1,0,0.1l-0.5,16.8c0,0.6,0,0.8-0.3,0.8h-2.3L56.7,27.1z"/>
		<path class="st0" d="M78.9,27c-0.2,0-0.5,0-0.6-0.1c-0.1-0.1-0.3-0.2-0.3-0.5V4.2c0-0.3,0.3-0.8,0.3-0.8C78.4,3.3,78.8,3,78.9,3h3
			C82,3,82,3.3,82.1,3.4C82.2,3.5,82,3.9,82,4.2v20c0,0.3,0.4,0.8,0.6,0.8h5.2c0.2,0,0.2-0.2,0.2-0.1c0.1,0.1,0,0,0,0.3v1.3
			c0,0.3,0.1,0.4,0,0.5c-0.1,0.1-0.1,0-0.2,0H78.9z"/>
		<path class="st0" d="M92.8,24.8c-0.2,0-0.4-0.1-0.5-0.2c-0.1-0.2-0.3-0.3-0.3-0.5v-0.9c0-0.1,0-0.2,0-0.2c0-0.1,0.1-0.2,0.1-0.2
			c0-0.1,0.1-0.1,0.1-0.2c0.1-0.1,0.1-0.1,0.1-0.2c0-0.1,0.1-0.1,0.1-0.2c0.1-0.1,0.1-0.1,0.1-0.2c0-0.1,0.1-0.1,0.1-0.2
			c0.1-0.1,0.1-0.1,0.2-0.2c0.1,0,0.1-0.1,0.2-0.2c0.1-0.1,0.2-0.1,0.2-0.2l4.5-4.6c0.1-0.1,0.2-0.2,0.2-0.3s-0.1-0.2-0.2-0.3
			l-4.4-4.4c-0.1-0.1-0.1-0.1-0.3-0.2c-0.1-0.1-0.2-0.2-0.2-0.2c-0.1-0.1-0.1-0.1-0.2-0.2c-0.1-0.1-0.2-0.2-0.2-0.2
			s-0.1-0.1-0.2-0.2c-0.1-0.1-0.2-0.2-0.2-0.3s0-0.2,0-0.3V9.3c0-0.2,0.1-0.4,0.3-0.5c0.1-0.1,0.3-0.2,0.5-0.2
			c0.2,0,0.3,0.1,0.5,0.2l5.8,5.7c0.3,0.3,0.5,0.5,0.6,0.6c0.1,0.1,0.1,0.3,0.2,0.5c0.1,0.2,0.1,0.5,0.1,0.7V17c0,0.1,0,0.2,0,0.3
			c0,0.1,0,0.2,0,0.2c-0.1,0.1,0,0.2,0,0.2c0,0.1,0,0.1-0.1,0.2c-0.1,0.1-0.1,0.2-0.1,0.2s0,0.1-0.1,0.2c-0.1,0.1-0.2,0.2-0.2,0.2
			s-0.1,0.1-0.2,0.2s-0.2,0.2-0.2,0.2l-5.8,5.8C93.1,24.7,93,24.8,92.8,24.8z"/>
	</g>
</g>
</svg>
